<svg xmlns="http://www.w3.org/2000/svg" xmlns:xlink="http://www.w3.org/1999/xlink" width="500" zoomAndPan="magnify" viewBox="0 0 375 165.000002" height="220" preserveAspectRatio="xMidYMid meet" version="1.0"><defs><g/><clipPath id="9ab498940e"><rect x="0" width="352" y="0" height="99"/></clipPath><clipPath id="cd6307dd7f"><path d="M 0.214844 11 L 22 11 L 22 38 L 0.214844 38 Z M 0.214844 11 " clip-rule="nonzero"/></clipPath><clipPath id="08dff09609"><rect x="0" width="141" y="0" height="53"/></clipPath></defs><g transform="matrix(1, 0, 0, 1, 10, 24)"><g clip-path="url(#9ab498940e)"><g fill="#000000" fill-opacity="1"><g transform="translate(1.581958, 75.695343)"><g><path d="M 70.15625 11.859375 L 49.46875 11.859375 L 49.46875 -20.953125 L 27.546875 -20.953125 L 27.546875 11.859375 L 6.859375 11.859375 L 6.859375 -65.34375 L 27.546875 -65.34375 L 27.546875 -34.765625 L 49.46875 -34.765625 L 49.46875 -65.34375 L 70.15625 -65.34375 Z M 70.15625 11.859375 "/></g></g></g><g fill="#000000" fill-opacity="1"><g transform="translate(76.011564, 75.695343)"><g><path d="M 59.28125 -12.65625 L 22.640625 -12.65625 C 22.640625 -9.03125 23.410156 -6.101562 24.953125 -3.875 C 26.503906 -1.644531 28.734375 -0.53125 31.640625 -0.53125 C 33.242188 -0.53125 34.773438 -0.929688 36.234375 -1.734375 C 37.691406 -2.535156 38.597656 -4.125 38.953125 -6.5 L 59.375 -6.5 C 59.132812 -1.632812 56.398438 2.640625 51.171875 6.328125 C 46.234375 10.015625 39.753906 11.859375 31.734375 11.859375 C 22.460938 11.859375 15.242188 9.210938 10.078125 3.921875 C 4.898438 -1.367188 2.3125 -8.410156 2.3125 -17.203125 C 2.3125 -26.890625 5.109375 -34.109375 10.703125 -38.859375 C 16.347656 -43.671875 23.03125 -46.078125 30.75 -46.078125 C 38.71875 -46.078125 45.460938 -43.757812 50.984375 -39.125 C 56.515625 -34.613281 59.28125 -27.988281 59.28125 -19.25 Z M 22.640625 -22.8125 L 38.953125 -22.8125 C 38.835938 -25.4375 38.09375 -27.9375 36.71875 -30.3125 C 35.351562 -32.75 33.363281 -33.96875 30.75 -33.96875 C 28.257812 -33.96875 26.300781 -32.804688 24.875 -30.484375 C 23.445312 -28.046875 22.703125 -25.488281 22.640625 -22.8125 Z M 22.640625 -22.8125 "/></g></g></g><g fill="#000000" fill-opacity="1"><g transform="translate(135.020401, 75.695343)"><g><path d="M 56.421875 11.234375 L 36.015625 11.234375 C 35.773438 10.691406 35.609375 10.347656 35.515625 10.203125 C 35.429688 10.054688 35.390625 9.984375 35.390625 9.984375 C 35.390625 9.984375 34.882812 10.128906 33.875 10.421875 C 32.863281 10.722656 31.492188 11.019531 29.765625 11.3125 C 28.046875 11.613281 26.085938 11.765625 23.890625 11.765625 C 15.984375 11.765625 10.25 10.070312 6.6875 6.6875 C 3 3.300781 1.15625 -0.945312 1.15625 -6.0625 C 1.15625 -10.757812 3.03125 -14.800781 6.78125 -18.1875 C 10.457031 -21.570312 16.21875 -23.320312 24.0625 -23.4375 L 34.9375 -23.625 L 34.9375 -25.140625 C 34.9375 -27.816406 34.328125 -29.910156 33.109375 -31.421875 C 31.890625 -32.929688 30.363281 -33.6875 28.53125 -33.6875 C 27.101562 -33.6875 25.71875 -33.253906 24.375 -32.390625 C 23.039062 -31.535156 22.132812 -29.976562 21.65625 -27.71875 L 2.046875 -27.71875 C 2.222656 -33.3125 4.925781 -37.769531 10.15625 -41.09375 C 15.445312 -44.414062 21.273438 -46.078125 27.640625 -46.078125 C 36.492188 -46.078125 43.328125 -44.117188 48.140625 -40.203125 C 53.015625 -36.222656 55.453125 -31.5 55.453125 -26.03125 L 55.453125 1.0625 C 55.453125 2.726562 55.523438 4.40625 55.671875 6.09375 C 55.816406 7.789062 56.066406 9.503906 56.421875 11.234375 Z M 34.9375 -9.8125 L 34.9375 -13.109375 L 26.296875 -13.015625 C 25.109375 -13.015625 23.945312 -12.40625 22.8125 -11.1875 C 21.6875 -9.96875 21.125 -8.378906 21.125 -6.421875 C 21.125 -4.398438 21.703125 -2.851562 22.859375 -1.78125 C 24.023438 -0.707031 25.226562 -0.171875 26.46875 -0.171875 C 29.082031 -0.171875 31.144531 -0.925781 32.65625 -2.4375 C 34.175781 -3.957031 34.9375 -6.414062 34.9375 -9.8125 Z M 34.9375 -9.8125 "/></g></g></g><g fill="#000000" fill-opacity="1"><g transform="translate(192.513905, 75.695343)"><g><path d="M 25.234375 11.859375 L 4.546875 11.859375 L 4.546875 -65.34375 L 25.234375 -65.34375 Z M 25.234375 11.859375 "/></g></g></g><g fill="#000000" fill-opacity="1"><g transform="translate(219.789864, 75.695343)"><g><path d="M 37.53125 11.671875 L 26.46875 11.671875 C 20.113281 11.671875 15.226562 10.15625 11.8125 7.125 C 8.394531 4.09375 6.6875 0.171875 6.6875 -4.640625 L 6.6875 -32.1875 L 0.265625 -32.1875 L 0.265625 -43.40625 L 6.6875 -43.40625 L 6.6875 -59.984375 L 27.09375 -59.984375 L 27.09375 -43.40625 L 37.53125 -43.40625 L 37.53125 -32.1875 L 27.09375 -32.1875 L 27.09375 -5.4375 C 27.09375 -2.289062 28.253906 -0.71875 30.578125 -0.71875 L 37.53125 -0.71875 Z M 37.53125 11.671875 "/></g></g></g><g fill="#000000" fill-opacity="1"><g transform="translate(256.781768, 75.695343)"><g><path d="M 59.375 11.859375 L 38.859375 11.859375 L 38.859375 -22.640625 C 38.859375 -25.492188 38.191406 -27.8125 36.859375 -29.59375 C 35.523438 -31.375 34.054688 -32.265625 32.453125 -32.265625 C 30.847656 -32.265625 29.34375 -31.375 27.9375 -29.59375 C 26.539062 -27.8125 25.84375 -25.492188 25.84375 -22.640625 L 25.84375 11.859375 L 5.265625 11.859375 L 5.265625 -65.34375 L 25.84375 -65.34375 L 25.84375 -41.1875 C 26.851562 -42.25 28.398438 -43.195312 30.484375 -44.03125 C 32.566406 -44.863281 34.765625 -45.28125 37.078125 -45.28125 C 43.441406 -45.28125 48.734375 -43.46875 52.953125 -39.84375 C 57.234375 -36.28125 59.375 -31.257812 59.375 -24.78125 Z M 59.375 11.859375 "/></g></g></g><g fill="#000000" fill-opacity="1"><g transform="translate(318.108174, 75.695343)"><g><path d="M 28.4375 15.953125 L 7.046875 15.953125 L 7.046875 -2.40625 L 28.4375 -2.40625 Z M 28.4375 15.953125 "/></g></g></g></g></g><g transform="matrix(1, 0, 0, 1, 218, 110)"><g clip-path="url(#08dff09609)"><g clip-path="url(#cd6307dd7f)"><g fill="#000000" fill-opacity="1"><g transform="translate(1.603761, 37.203194)"><g><path d="M 12.890625 -17.390625 C 13.085938 -18.085938 13.210938 -18.664062 13.265625 -19.125 C 13.328125 -19.59375 13.328125 -19.96875 13.265625 -20.25 C 13.203125 -20.53125 13.070312 -20.726562 12.875 -20.84375 C 12.6875 -20.96875 12.425781 -21.03125 12.09375 -21.03125 C 11.613281 -21.03125 11.191406 -20.898438 10.828125 -20.640625 C 10.472656 -20.378906 10.132812 -19.921875 9.8125 -19.265625 C 9.488281 -18.617188 9.15625 -17.742188 8.8125 -16.640625 C 8.46875 -15.546875 8.070312 -14.160156 7.625 -12.484375 C 7.175781 -10.804688 6.828125 -9.414062 6.578125 -8.3125 C 6.328125 -7.21875 6.1875 -6.347656 6.15625 -5.703125 C 6.132812 -5.054688 6.234375 -4.601562 6.453125 -4.34375 C 6.679688 -4.082031 7.035156 -3.953125 7.515625 -3.953125 C 7.910156 -3.953125 8.257812 -4.046875 8.5625 -4.234375 C 8.863281 -4.429688 9.148438 -4.765625 9.421875 -5.234375 C 9.703125 -5.703125 9.972656 -6.328125 10.234375 -7.109375 C 10.492188 -7.898438 10.785156 -8.882812 11.109375 -10.0625 L 17.421875 -10.0625 L 16.921875 -8.1875 C 16.609375 -7 16.222656 -5.957031 15.765625 -5.0625 C 15.316406 -4.175781 14.816406 -3.414062 14.265625 -2.78125 C 13.710938 -2.15625 13.117188 -1.632812 12.484375 -1.21875 C 11.847656 -0.8125 11.179688 -0.484375 10.484375 -0.234375 C 9.796875 0.00390625 9.078125 0.164062 8.328125 0.25 C 7.585938 0.34375 6.847656 0.390625 6.109375 0.390625 C 4.335938 0.390625 2.953125 0.15625 1.953125 -0.3125 C 0.960938 -0.789062 0.285156 -1.546875 -0.078125 -2.578125 C -0.441406 -3.617188 -0.523438 -4.953125 -0.328125 -6.578125 C -0.128906 -8.203125 0.273438 -10.171875 0.890625 -12.484375 C 1.523438 -14.878906 2.210938 -16.898438 2.953125 -18.546875 C 3.691406 -20.203125 4.546875 -21.539062 5.515625 -22.5625 C 6.484375 -23.59375 7.597656 -24.332031 8.859375 -24.78125 C 10.128906 -25.238281 11.609375 -25.46875 13.296875 -25.46875 C 14.765625 -25.46875 15.960938 -25.28125 16.890625 -24.90625 C 17.816406 -24.539062 18.507812 -24.015625 18.96875 -23.328125 C 19.425781 -22.640625 19.671875 -21.804688 19.703125 -20.828125 C 19.734375 -19.859375 19.582031 -18.769531 19.25 -17.5625 L 18.828125 -15.96875 L 12.515625 -15.96875 Z M 12.890625 -17.390625 "/></g></g></g></g><g fill="#000000" fill-opacity="1"><g transform="translate(20.733419, 37.203194)"><g><path d="M 7.625 -12.484375 C 7.175781 -10.804688 6.828125 -9.414062 6.578125 -8.3125 C 6.328125 -7.21875 6.1875 -6.347656 6.15625 -5.703125 C 6.132812 -5.054688 6.234375 -4.601562 6.453125 -4.34375 C 6.679688 -4.082031 7.035156 -3.953125 7.515625 -3.953125 C 8.003906 -3.953125 8.425781 -4.082031 8.78125 -4.34375 C 9.144531 -4.601562 9.488281 -5.054688 9.8125 -5.703125 C 10.132812 -6.347656 10.46875 -7.21875 10.8125 -8.3125 C 11.15625 -9.414062 11.546875 -10.804688 11.984375 -12.484375 C 12.441406 -14.160156 12.796875 -15.546875 13.046875 -16.640625 C 13.296875 -17.742188 13.429688 -18.617188 13.453125 -19.265625 C 13.484375 -19.921875 13.382812 -20.378906 13.15625 -20.640625 C 12.9375 -20.898438 12.582031 -21.03125 12.09375 -21.03125 C 11.613281 -21.03125 11.191406 -20.898438 10.828125 -20.640625 C 10.472656 -20.378906 10.132812 -19.921875 9.8125 -19.265625 C 9.488281 -18.617188 9.15625 -17.742188 8.8125 -16.640625 C 8.46875 -15.546875 8.070312 -14.160156 7.625 -12.484375 Z M 0.890625 -12.484375 C 1.515625 -14.816406 2.195312 -16.804688 2.9375 -18.453125 C 3.6875 -20.097656 4.550781 -21.4375 5.53125 -22.46875 C 6.507812 -23.507812 7.628906 -24.269531 8.890625 -24.75 C 10.160156 -25.226562 11.628906 -25.46875 13.296875 -25.46875 C 14.953125 -25.46875 16.285156 -25.226562 17.296875 -24.75 C 18.304688 -24.269531 19.023438 -23.507812 19.453125 -22.46875 C 19.878906 -21.4375 20.019531 -20.097656 19.875 -18.453125 C 19.738281 -16.804688 19.359375 -14.816406 18.734375 -12.484375 C 18.097656 -10.097656 17.398438 -8.082031 16.640625 -6.4375 C 15.890625 -4.789062 15.015625 -3.460938 14.015625 -2.453125 C 13.023438 -1.441406 11.890625 -0.710938 10.609375 -0.265625 C 9.328125 0.171875 7.832031 0.390625 6.125 0.390625 C 4.507812 0.390625 3.207031 0.15625 2.21875 -0.3125 C 1.238281 -0.789062 0.546875 -1.546875 0.140625 -2.578125 C -0.265625 -3.617188 -0.394531 -4.953125 -0.25 -6.578125 C -0.101562 -8.203125 0.273438 -10.171875 0.890625 -12.484375 Z M 0.890625 -12.484375 "/></g></g></g><g fill="#000000" fill-opacity="1"><g transform="translate(40.529202, 37.203194)"><g><path d="M 12.265625 -24.96875 L 12.34375 -9.59375 L 12.390625 -9.59375 L 16.5 -24.96875 L 22.59375 -24.96875 L 15.921875 0 L 8.78125 0 L 8.578125 -15.421875 L 8.5 -15.40625 L 4.390625 0 L -1.703125 0 L 4.96875 -24.96875 Z M 12.265625 -24.96875 "/></g></g></g><g fill="#000000" fill-opacity="1"><g transform="translate(61.571826, 37.203194)"><g><path d="M 12.265625 -24.96875 L 12.34375 -9.59375 L 12.390625 -9.59375 L 16.5 -24.96875 L 22.59375 -24.96875 L 15.921875 0 L 8.78125 0 L 8.578125 -15.421875 L 8.5 -15.40625 L 4.390625 0 L -1.703125 0 L 4.96875 -24.96875 Z M 12.265625 -24.96875 "/></g></g></g><g fill="#000000" fill-opacity="1"><g transform="translate(82.614449, 37.203194)"><g><path d="M 19.765625 -24.96875 L 18.328125 -19.625 L 10.0625 -19.625 L 8.9375 -15.40625 L 16.6875 -15.40625 L 15.328125 -10.265625 L 7.5625 -10.265625 L 6.234375 -5.34375 L 14.828125 -5.34375 L 13.40625 0 L -1.703125 0 L 4.96875 -24.96875 Z M 19.765625 -24.96875 "/></g></g></g><g fill="#000000" fill-opacity="1"><g transform="translate(100.446023, 37.203194)"><g><path d="M 12.890625 -17.390625 C 13.085938 -18.085938 13.210938 -18.664062 13.265625 -19.125 C 13.328125 -19.59375 13.328125 -19.96875 13.265625 -20.25 C 13.203125 -20.53125 13.070312 -20.726562 12.875 -20.84375 C 12.6875 -20.96875 12.425781 -21.03125 12.09375 -21.03125 C 11.613281 -21.03125 11.191406 -20.898438 10.828125 -20.640625 C 10.472656 -20.378906 10.132812 -19.921875 9.8125 -19.265625 C 9.488281 -18.617188 9.15625 -17.742188 8.8125 -16.640625 C 8.46875 -15.546875 8.070312 -14.160156 7.625 -12.484375 C 7.175781 -10.804688 6.828125 -9.414062 6.578125 -8.3125 C 6.328125 -7.21875 6.1875 -6.347656 6.15625 -5.703125 C 6.132812 -5.054688 6.234375 -4.601562 6.453125 -4.34375 C 6.679688 -4.082031 7.035156 -3.953125 7.515625 -3.953125 C 7.910156 -3.953125 8.257812 -4.046875 8.5625 -4.234375 C 8.863281 -4.429688 9.148438 -4.765625 9.421875 -5.234375 C 9.703125 -5.703125 9.972656 -6.328125 10.234375 -7.109375 C 10.492188 -7.898438 10.785156 -8.882812 11.109375 -10.0625 L 17.421875 -10.0625 L 16.921875 -8.1875 C 16.609375 -7 16.222656 -5.957031 15.765625 -5.0625 C 15.316406 -4.175781 14.816406 -3.414062 14.265625 -2.78125 C 13.710938 -2.15625 13.117188 -1.632812 12.484375 -1.21875 C 11.847656 -0.8125 11.179688 -0.484375 10.484375 -0.234375 C 9.796875 0.00390625 9.078125 0.164062 8.328125 0.25 C 7.585938 0.34375 6.847656 0.390625 6.109375 0.390625 C 4.335938 0.390625 2.953125 0.15625 1.953125 -0.3125 C 0.960938 -0.789062 0.285156 -1.546875 -0.078125 -2.578125 C -0.441406 -3.617188 -0.523438 -4.953125 -0.328125 -6.578125 C -0.128906 -8.203125 0.273438 -10.171875 0.890625 -12.484375 C 1.523438 -14.878906 2.210938 -16.898438 2.953125 -18.546875 C 3.691406 -20.203125 4.546875 -21.539062 5.515625 -22.5625 C 6.484375 -23.59375 7.597656 -24.332031 8.859375 -24.78125 C 10.128906 -25.238281 11.609375 -25.46875 13.296875 -25.46875 C 14.765625 -25.46875 15.960938 -25.28125 16.890625 -24.90625 C 17.816406 -24.539062 18.507812 -24.015625 18.96875 -23.328125 C 19.425781 -22.640625 19.671875 -21.804688 19.703125 -20.828125 C 19.734375 -19.859375 19.582031 -18.769531 19.25 -17.5625 L 18.828125 -15.96875 L 12.515625 -15.96875 Z M 12.890625 -17.390625 "/></g></g></g><g fill="#000000" fill-opacity="1"><g transform="translate(119.575674, 37.203194)"><g><path d="M 1.953125 -19.421875 L 3.4375 -24.96875 L 19.65625 -24.96875 L 18.171875 -19.421875 L 13.3125 -19.421875 L 8.109375 0 L 1.578125 0 L 6.765625 -19.421875 Z M 1.953125 -19.421875 "/></g></g></g></g></g></svg>